# xmcd
#
# Track frame offsets:
#	150
#	10823
#	33261
#	43221
#	66924
#	78039
#	90852
#	102877
#	119142
#	130595
#	144518
#	157180
#	183595
#	196945
#	218219
#	236760
#	258104
#	271316
#	290320
#	300547
#
# Disc length: 4135 seconds
#
# Revision: 1
# Processed by: cddbd v1.4PL0 Copyright (c) Steve Scherf et al.
# Submitted via: CDmax 2.0
#
DISCID=14102514
DTITLE=Memphis Slim - I Am The Blues
DYEAR=2003
DGENRE=Blues
TTITLE0=Strange, Strange Feelin´
TTITLE1=Lend Me Your Love
TTITLE2=Little Lonely Girl
TTITLE3=Rock Me Woman
TTITLE4=(I Feel Like) Ballin´ the Jack
TTITLE5=Only Folls Have Fun
TTITLE6=Sassy Mae
TTITLE7=This Little Woman
TTITLE8=A Long Time Baby
TTITLE9=Easy Blues
TTITLE10=I Am The Blues
TTITLE11=Freedom
TTITLE12=Everyday I Have The Blues
TTITLE13=Forty More Years or More
TTITLE14=Gambler´s Blues
TTITLE15=Strolling Thru The Park
TTITLE16=Ramble This Highway
TTITLE17=Gone Again
TTITLE18=All By Myself
TTITLE19=Caledonia
EXTD=
EXTT0=
EXTT1=
EXTT2=
EXTT3=
EXTT4=
EXTT5=
EXTT6=
EXTT7=
EXTT8=
EXTT9=
EXTT10=
EXTT11=
EXTT12=
EXTT13=
EXTT14=
EXTT15=
EXTT16=
EXTT17=
EXTT18=
EXTT19=
PLAYORDER=
